Coordinates
version=1
nRows=14
nColumns=40
inDegrees=yes

Units are S.I. units (second, meters, Newtons, ...)
If the header above contains a line with 'inDegrees', this indicates whether rotational values are in degrees (yes) or radians (no).

endheader
time	pelvis_tilt	pelvis_list	pelvis_rotation	pelvis_tx	pelvis_ty	pelvis_tz	hip_flexion_r	hip_adduction_r	hip_rotation_r	knee_angle_r	knee_angle_r_beta	ankle_angle_r	subtalar_angle_r	mtp_angle_r	hip_flexion_l	hip_adduction_l	hip_rotation_l	knee_angle_l	knee_angle_l_beta	ankle_angle_l	subtalar_angle_l	mtp_angle_l	lumbar_extension	lumbar_bending	lumbar_rotation	arm_flex_r	arm_add_r	arm_rot_r	elbow_flex_r	pro_sup_r	wrist_flex_r	wrist_dev_r	arm_flex_l	arm_add_l	arm_rot_l	elbow_flex_l	pro_sup_l	wrist_flex_l	wrist_dev_l
      0.00000000	     -0.54383045	      6.22095256	     -7.28472359	      0.07457274	      1.31948024	      0.01458980	     68.90192395	     -9.63179670	      9.16390981	     95.01962882	      1.65840538	     12.40802400	     -5.67756841	      0.00000000	     29.07872976	     -5.79626986	    -11.52770845	     60.26188036	      1.05176823	      0.27796728	     -7.35288258	      0.00000000	    -60.58250534	      1.02104664	     -1.61763576	     50.87810890	      4.37816238	    -12.41669254	     51.04094242	     43.73366976	      0.00000000	      0.00000000	     54.34501564	     17.10577479	    -10.88302405	     35.71409110	      6.75056823	      0.00000000	      0.00000000
      0.01700000	      0.12807792	      6.26089560	     -6.66058194	      0.07443724	      1.32085515	      0.01391445	     66.38805792	    -10.34689178	      7.95920906	     90.82508996	      1.58519686	     12.05837093	     -6.06221985	      0.00000000	     29.61459888	     -5.42968678	     -9.67580054	     64.60170624	      1.12751248	      1.87955916	     -8.07745912	      0.00000000	    -61.11377974	      1.22036805	     -1.89163336	     50.36752223	      4.37555762	    -12.76991764	     51.45514247	     43.67276054	      0.00000000	      0.00000000	     54.38405291	     17.13409124	    -10.67015205	     35.55096209	      6.80922166	      0.00000000	      0.00000000
      0.03300000	      0.79247547	      6.26391005	     -5.96821087	      0.07431160	      1.32214005	      0.01317481	     63.83728760	    -11.10491965	      6.62292511	     86.54362367	      1.51047118	     11.33657771	     -6.45686026	      0.00000000	     30.14322748	     -5.07261933	     -7.89098553	     68.88048812	      1.20219131	      2.96310807	     -8.63615342	      0.00000000	    -61.62808727	      1.49823243	     -2.15129360	     49.84312426	      4.34038046	    -13.09647972	     51.85314732	     43.60745648	      0.00000000	      0.00000000	     54.42756725	     17.15683351	    -10.46352942	     35.39125515	      6.87740101	      0.00000000	      0.00000000
      0.05000000	      1.34449420	      6.38294173	     -5.21336572	      0.07408774	      1.32333542	      0.01252284	     61.09951279	    -11.89275907	      5.46909481	     82.13175806	      1.43346960	     10.53460141	     -7.08609236	      0.00000000	     31.05404774	     -4.60011336	     -6.24530927	     73.21277259	      1.27780394	      3.81401922	     -8.89768779	      0.00000000	    -62.06143166	      1.80325728	     -2.53005402	     49.41428055	      4.33006071	    -13.48444517	     52.24433447	     43.54663030	      0.00000000	      0.00000000	     54.49511375	     17.22672445	    -10.31190275	     35.22268916	      6.93829722	      0.00000000	      0.00000000
      0.06700000	      1.79777689	      6.85740057	     -4.42508162	      0.07383296	      1.32423510	      0.01205819	     58.16513489	    -12.82395904	      4.85968206	     77.57320852	      1.35390790	      9.59975636	     -8.20651374	      0.00000000	     32.48790913	     -3.84513043	     -4.99105396	     77.77750672	      1.35747358	      4.57023153	     -8.70494992	      0.00000000	    -62.39038483	      2.01420387	     -3.20013783	     49.10254281	      4.33921453	    -13.88968947	     52.61249071	     43.55257386	      0.00000000	      0.00000000	     54.60076244	     17.41468921	    -10.19270601	     35.06970246	      7.00672679	      0.00000000	      0.00000000
      0.08300000	      2.16459633	      7.60913584	     -3.70033512	      0.07363588	      1.32481046	      0.01167363	     55.17803217	    -13.84185566	      4.65619097	     72.91651809	      1.27263332	      8.19835394	     -9.37375677	      0.00000000	     34.23051340	     -2.88314870	     -4.14975306	     82.40508160	      1.43823999	      5.42170177	     -8.46770340	      0.00000000	    -62.61676317	      2.07084356	     -4.05713333	     48.81591453	      4.43343104	    -14.54683996	     53.00228891	     43.57997562	      0.00000000	      0.00000000	     54.66947505	     17.67012742	    -10.21936820	     34.93768962	      7.58260877	      0.00000000	      0.00000000
      0.10000000	      2.40375173	      8.40118498	     -2.94931478	      0.07331891	      1.32521040	      0.01130710	     52.15039845	    -14.85013642	      4.38592256	     68.37502068	      1.19336924	      6.80194087	    -10.37440425	      0.00000000	     36.23864710	     -1.93349779	     -3.47186757	     86.81272294	      1.51516785	      6.10408008	     -8.18281459	      0.00000000	    -62.73775457	      2.07923401	     -4.94735980	     48.49484888	      4.65134896	    -15.38687558	     53.43691381	     43.65146177	      0.00000000	      0.00000000	     54.73356583	     17.90565060	    -10.09596645	     34.81569281	      7.80688310	      0.00000000	      0.00000000
      0.11700000	      2.53630789	      9.15715505	     -2.12586531	      0.07297651	      1.32542338	      0.01058926	     49.02567727	    -15.84393661	      3.89226889	     63.96205987	      1.11634854	      5.30328053	    -11.02781910	      0.00000000	     38.48980741	     -1.07245938	     -2.92790731	     91.03894118	      1.58892927	      6.85379484	     -7.88205309	      0.00000000	    -62.75620045	      2.14873524	     -5.81541409	     48.12722422	      5.21257653	    -16.73171664	     53.97930559	     43.67998044	      0.00000000	      0.00000000	     54.71271956	     18.15381486	     -9.95354419	     34.71050384	      7.95358280	      0.00000000	      0.00000000
      0.13300000	      2.53144789	      9.87419169	     -1.21546381	      0.07252459	      1.32533579	      0.00983708	     45.83709640	    -16.79330746	      3.16871205	     59.65310033	      1.04114301	      3.81885575	    -11.65146191	      0.00000000	     41.05768430	     -0.27283740	     -2.43853319	     95.08061250	      1.65946974	      7.52524694	     -7.51176012	      0.00000000	    -62.65520453	      2.24191751	     -6.68794184	     47.77262831	      5.84552275	    -18.23343201	     54.55747341	     43.77595242	      0.00000000	      0.00000000	     54.67371301	     18.40200170	     -9.78462760	     34.59698111	      8.06657459	      0.00000000	      0.00000000
      0.15000000	      2.41966296	     10.44713057	     -0.13548299	      0.07211158	      1.32513092	      0.00880966	     42.67984613	    -17.68280224	      2.09646738	     55.66764318	      0.97158366	      2.35183053	    -12.38368860	      0.00000000	     43.78837966	      0.51721717	     -1.89048675	     98.68856356	      1.72244037	      7.90767106	     -7.19998908	      0.00000000	    -62.45948291	      2.55077705	     -7.48378804	     47.42505340	      6.25874865	    -19.38887538	     55.05418475	     44.15125369	      0.00000000	      0.00000000	     54.66026321	     18.60749233	     -9.49908803	     34.34362641	      8.10811529	      0.00000000	      0.00000000
      0.16700000	      2.20506187	     11.00196201	      0.83004132	      0.07159059	      1.32475496	      0.00785101	     39.76352785	    -18.42379939	      1.03825194	     52.12196214	      0.90969985	      0.73379296	    -12.80494800	      0.00000000	     46.64242239	      1.18881732	     -1.67722688	    101.83252443	      1.77731284	      7.94373220	     -7.28390955	      0.00000000	    -62.20411753	      2.74179241	     -8.22220626	     47.18661263	      6.43855423	    -20.20001487	     55.34384359	     44.50745580	      0.00000000	      0.00000000	     54.69194510	     18.74825480	     -9.09854691	     34.02418394	      8.18266528	      0.00000000	      0.00000000
      0.18300000	      1.90283159	     11.43310894	      1.84721539	      0.07119097	      1.32417223	      0.00684024	     36.95050470	    -19.03389719	     -0.23886472	     48.99210373	      0.85507352	     -0.87777148	    -13.10975626	      0.00000000	     49.62647662	      1.74660439	     -1.58729570	    104.56676119	      1.82503427	      7.79131630	     -7.63431798	      0.00000000	    -61.85342938	      3.00417230	     -8.88279017	     46.92525913	      6.42342275	    -20.76260279	     55.48110023	     44.83754423	      0.00000000	      0.00000000	     54.70724659	     18.84526424	     -8.62699135	     33.61208740	      8.27185406	      0.00000000	      0.00000000
      0.20000000	      1.60164302	     11.73987331	      2.71084282	      0.07075230	      1.32352381	      0.00595552	     34.39189141	    -19.46809144	     -1.60341380	     46.44463872	      0.81061187	     -2.24158677	    -13.28471529	      0.00000000	     52.52050286	      2.18984480	     -1.62938867	    106.76241428	      1.86335565	      7.80474784	     -7.95622911	      0.00000000	    -61.51552702	      3.24220658	     -9.43298142	     46.67080128	      6.32143229	    -21.04783011	     55.57200146	     45.13670726	      0.00000000	      0.00000000	     54.69400954	     18.91339215	     -8.17770143	     33.29048924	      8.28914065	      0.00000000	      0.00000000
      0.21700000	      1.31635263	     11.93059939	      3.28555999	      0.07035270	      1.32283493	      0.00542721	     32.18002802	    -19.69977022	     -2.90697232	     44.59917254	      0.77840240	     -3.40301602	    -13.24073123	      0.00000000	     55.25600120	      2.41934874	     -1.85929629	    108.39716130	      1.89188736	      8.21547899	     -8.10889448	      0.00000000	    -61.18084452	      3.32899954	     -9.85599282	     46.33905830	      6.10534038	    -20.97933292	     55.57313416	     45.31253815	      0.00000000	      0.00000000	     54.60351379	     18.92498636	     -7.81548294	     33.07446143	      8.30243178	      0.00000000	      0.00000000
